<svg width="15" height="15" viewBox="0 0 15 15" fill="none" xmlns="http://www.w3.org/2000/svg">
<path d="M7.5 0C5.51088 0 3.60322 0.790176 2.1967 2.1967C0.790176 3.60322 0 5.51088 0 7.5C0 9.48912 0.790176 11.3968 2.1967 12.8033C3.60322 14.2098 5.51088 15 7.5 15C9.48912 15 11.3968 14.2098 12.8033 12.8033C14.2098 11.3968 15 9.48912 15 7.5C15 5.51088 14.2098 3.60322 12.8033 2.1967C11.3968 0.790176 9.48912 0 7.5 0V0ZM10.7812 7.03125C10.9056 7.03125 11.0248 7.08064 11.1127 7.16854C11.2006 7.25645 11.25 7.37568 11.25 7.5C11.25 7.62432 11.2006 7.74355 11.1127 7.83146C11.0248 7.91936 10.9056 7.96875 10.7812 7.96875H5.35031L7.36312 9.98063C7.40671 10.0242 7.44128 10.0759 7.46487 10.1329C7.48845 10.1898 7.50059 10.2509 7.50059 10.3125C7.50059 10.3741 7.48845 10.4352 7.46487 10.4921C7.44128 10.5491 7.40671 10.6008 7.36312 10.6444C7.31954 10.688 7.2678 10.7225 7.21086 10.7461C7.15392 10.7697 7.09289 10.7818 7.03125 10.7818C6.96961 10.7818 6.90858 10.7697 6.85164 10.7461C6.7947 10.7225 6.74296 10.688 6.69938 10.6444L3.88687 7.83187C3.84322 7.78833 3.80859 7.7366 3.78496 7.67966C3.76133 7.62271 3.74916 7.56166 3.74916 7.5C3.74916 7.43834 3.76133 7.37729 3.78496 7.32034C3.80859 7.26339 3.84322 7.21167 3.88687 7.16813L6.69938 4.35563C6.78739 4.26761 6.90677 4.21816 7.03125 4.21816C7.15573 4.21816 7.27511 4.26761 7.36312 4.35563C7.45114 4.44364 7.50059 4.56302 7.50059 4.6875C7.50059 4.81198 7.45114 4.93136 7.36312 5.01937L5.35031 7.03125H10.7812Z" fill="white"/>
</svg>
