<svg width="17" height="22" viewBox="0 0 17 22" fill="none" xmlns="http://www.w3.org/2000/svg">
<path d="M15.7788 11.6708C15.9176 11.5753 16.0311 11.4474 16.1095 11.2982C16.1879 11.1491 16.2289 10.9831 16.2289 10.8146C16.2289 10.6461 16.1879 10.4801 16.1095 10.3309C16.0311 10.1817 15.9176 10.0539 15.7788 9.95831L2.23716 0.583315C2.08097 0.474798 1.89802 0.411163 1.70821 0.399321C1.51839 0.387478 1.32895 0.427881 1.16049 0.516142C0.992017 0.604403 0.850959 0.737144 0.752636 0.899944C0.654312 1.06274 0.602485 1.24938 0.602784 1.43957L0.602784 20.1896C0.603568 20.3793 0.656062 20.5653 0.754621 20.7274C0.853179 20.8895 0.994074 21.0217 1.16215 21.1098C1.33023 21.1979 1.51913 21.2384 1.70855 21.2272C1.89796 21.2159 2.08071 21.1532 2.23716 21.0458L15.7788 11.6708Z" fill="#2D407D"/>
</svg>
