<svg width="12" height="12" viewBox="0 0 12 12" fill="none" xmlns="http://www.w3.org/2000/svg">
<path d="M5.82942 0.169708C7.2372 0.169708 8.58733 0.747841 9.58278 1.77692C10.5782 2.806 11.1375 4.20174 11.1375 5.65708C11.1375 7.11242 10.5782 8.50816 9.58278 9.53724C8.58733 10.5663 7.2372 11.1445 5.82942 11.1445C4.42163 11.1445 3.07151 10.5663 2.07606 9.53724C1.0806 8.50816 0.521362 7.11242 0.521362 5.65708C0.521362 4.20174 1.0806 2.806 2.07606 1.77692C3.07151 0.747841 4.42163 0.169708 5.82942 0.169708V0.169708ZM3.50714 5.31412C3.41916 5.31412 3.33477 5.35025 3.27256 5.41457C3.21034 5.47889 3.17539 5.56612 3.17539 5.65708C3.17539 5.74804 3.21034 5.83527 3.27256 5.89959C3.33477 5.96391 3.41916 6.00004 3.50714 6.00004H7.35084L5.92629 7.47203C5.89545 7.50392 5.87098 7.54177 5.85429 7.58343C5.83759 7.6251 5.829 7.66975 5.829 7.71485C5.829 7.75994 5.83759 7.80459 5.85429 7.84626C5.87098 7.88792 5.89545 7.92578 5.92629 7.95766C5.95714 7.98955 5.99375 8.01484 6.03406 8.0321C6.07436 8.04936 6.11755 8.05824 6.16117 8.05824C6.20479 8.05824 6.24799 8.04936 6.28829 8.0321C6.32859 8.01484 6.36521 7.98955 6.39605 7.95766L8.38658 5.8999C8.41747 5.86804 8.44198 5.83019 8.45871 5.78853C8.47543 5.74686 8.48404 5.70219 8.48404 5.65708C8.48404 5.61197 8.47543 5.5673 8.45871 5.52564C8.44198 5.48397 8.41747 5.44612 8.38658 5.41426L6.39605 3.3565C6.36521 3.32461 6.32859 3.29932 6.28829 3.28206C6.24799 3.2648 6.20479 3.25592 6.16117 3.25592C6.11755 3.25592 6.07436 3.2648 6.03406 3.28206C5.99375 3.29932 5.95714 3.32461 5.92629 3.3565C5.89545 3.38839 5.87098 3.42624 5.85429 3.46791C5.83759 3.50957 5.829 3.55422 5.829 3.59932C5.829 3.64441 5.83759 3.68907 5.85429 3.73073C5.87098 3.77239 5.89545 3.81025 5.92629 3.84213L7.35084 5.31412H3.50714Z" fill="#430007"/>
</svg>
