<svg width="11" height="9" viewBox="0 0 11 9" fill="none" xmlns="http://www.w3.org/2000/svg">
<path d="M6.27092 0.636803C6.22484 0.560316 6.16317 0.497777 6.09123 0.454574C6.0193 0.41137 5.93925 0.388796 5.85798 0.388796C5.77671 0.388796 5.69666 0.41137 5.62473 0.454574C5.55279 0.497777 5.49112 0.560316 5.44504 0.636803L0.923752 8.09941C0.871418 8.18549 0.840729 8.2863 0.835017 8.39091C0.829306 8.49552 0.848791 8.59991 0.891356 8.69275C0.933922 8.78559 0.997938 8.86333 1.07645 8.91751C1.15497 8.97169 1.24497 9.00026 1.3367 9.00009L10.3793 9.00009C10.4708 8.99966 10.5604 8.97073 10.6386 8.91642C10.7168 8.8621 10.7806 8.78446 10.8231 8.69183C10.8655 8.59921 10.8851 8.4951 10.8797 8.39072C10.8742 8.28634 10.844 8.18563 10.7922 8.09941L6.27092 0.636803Z" fill="#FFF001"/>
</svg>
